<?xml version="1.0" encoding="UTF-8"?>
<svg id="Layer_1" xmlns="http://www.w3.org/2000/svg" width="204.93" height="340.84" viewBox="0 0 204.93 340.84">
  <defs>
    <style>
      .cls-1 {
        /* fill: #231f20; */
        fill: currentColor
      }
    </style>
  </defs>
  <path class="cls-1"
    d="M15.65,7.66c-.61,33.97-.09,67.95,1.54,101.89h6c-3.35-31.92-6.85-65.06,2.03-96.42,1.32-4.66,2.3-7.52,7.92-7.04,4.06.34,8.12.96,12.15,1.57,7.99,1.21,15.94,2.74,23.81,4.59,15.75,3.7,31.15,8.7,46.13,14.82l-1.32-5.01c-11.63,12.68-32.37,9.31-47.75,8.71-20.91-.82-41.81-1.63-62.72-2.45v6c21.96-2.22,44.07-2.75,66.12-3.38,11.12-.32,22.24-.53,33.36-.37s21.86.27,32.43,2.7c2.63.6,5.25,1.34,7.78,2.28,3.69,1.37,5.67,1.9,4.49,6.91-.96,4.05-3.34,8.14-5.45,11.7-4.28,7.24-9.9,13.61-16.31,19.04-13.95,11.84-31.5,18.79-49.53,21.24-24.42,3.33-49.12-.98-72.61-7.63-3.72-1.05-5.31,4.73-1.6,5.79,41.47,11.75,89.26,15.26,125.15-12.86,7.22-5.66,13.56-12.4,18.56-20.11,3.66-5.64,11.26-17.27,7.65-24.11-1.83-3.47-6.15-4.86-9.61-6.06-5.38-1.87-11-2.91-16.65-3.6-12.57-1.53-25.4-1.42-38.04-1.31-28.53.25-57.34.91-85.75,3.77-3.78.38-3.93,5.85,0,6,22.87.89,45.73,1.79,68.6,2.68,15.71.61,34.45,2.01,46.11-10.7,1.65-1.8.77-4.16-1.32-5.01-16.7-6.83-33.94-12.25-51.59-16.05-8.77-1.89-17.63-3.37-26.53-4.49-6.25-.79-13.2-2.26-16.9,4.18s-4.92,16.3-6.05,23.81c-1.29,8.52-1.93,17.12-2.07,25.73-.29,18.43,1.6,36.79,3.52,55.09.39,3.76,6.19,3.92,6,0-1.63-33.94-2.14-67.92-1.54-101.89.07-3.86-5.93-3.86-6,0h0Z" />
  <path class="cls-1"
    d="M16.9,118.91c-2.81,13.93-5.66,28.65-1.29,42.58,3.97,12.65,13.14,20.98,25.6,25.06,14.26,4.68,30.09,6,44.99,6.84,16.46.92,32.96.43,49.39-.79,19.1-1.42,38.11-3.84,57.11-6.28,3.78-.48,3.83-6.49,0-6-37.81,4.85-76.05,9.73-114.21,6.53-9.65-.81-19.33-2.05-28.78-4.2-7.61-1.74-15.42-4.35-21.01-10.07-13.45-13.78-9.41-35.23-6.01-52.07.76-3.77-5.02-5.38-5.79-1.6h0Z" />
  <path class="cls-1"
    d="M166.79,204.28c-54.05-1.03-108.36-1.87-161.87,7.08-2.01.34-2.61,2.86-1.79,4.41,2.67,5.05,7.7,7.35,13.1,8.48,7.8,1.62,16,2.11,23.91,2.84,18.32,1.69,36.72,2.48,55.11,2.38,36.1-.21,72.14-3.93,107.55-10.92,2.78-.55,2.62-4.11.72-5.48-5.58-4.02-11.73-6.18-18.55-6.85-3.84-.38-3.81,5.63,0,6,5.75.56,10.86,2.67,15.52,6.03l.72-5.48c-33,6.51-66.52,10.1-100.15,10.64-16.46.26-32.92-.19-49.34-1.36-8.37-.6-16.72-1.38-25.06-2.36-6.06-.71-15.07-.74-18.35-6.94l-1.79,4.41c52.95-8.85,106.79-7.88,160.27-6.86,3.86.07,3.86-5.93,0-6h0Z" />
  <path class="cls-1"
    d="M189.86,246.62c-58.7,2.18-117.36,5.47-175.94,9.85-2.77.21-4.33,4.1-1.51,5.59,14.8,7.85,31.03,12.98,47.05,17.69,16.11,4.73,32.76,8.07,49.63,6.82,32.5-2.41,61.81-18.62,89.64-34.3,1.71-.96,1.93-3.35.61-4.71-3.35-3.46-8.19-3.81-12.41-1.65-5.15,2.63-7.34,7.81-7.49,13.42-.21,8.03,2.36,16.26,3.12,24.24s1.25,16.99.57,25.38c-1.4,17.13-21.6,19.26-35.16,21.84-16.75,3.18-33.84,4.46-50.88,3.95-19.24-.58-38.28-3.57-56.81-8.75-3.72-1.04-5.31,4.75-1.6,5.79,30.66,8.57,62.89,11.17,94.51,7.33,13.8-1.68,29.11-3.57,41.85-9.44,5.26-2.43,9.88-6.17,12.16-11.61,2.7-6.45,2.27-14.2,2.14-21.04-.17-8.93-1.03-17.84-2.5-26.64-.72-4.34-2.07-9.07-1.15-13.48.77-3.71,5.68-8.96,9.42-5.09l.61-4.71c-26.83,15.11-55.25,31.16-86.61,33.48-16.37,1.21-32.4-2-48.03-6.61-15.52-4.57-31.28-9.48-45.61-17.08l-1.51,5.59c58.58-4.38,117.23-7.67,175.94-9.85,3.85-.14,3.87-6.14,0-6h0Z" />
</svg>